<svg width="125" height="125" viewBox="0 0 125 125" fill="none" xmlns="http://www.w3.org/2000/svg">
<path d="M69.5744 26.4121L73.5498 41.2103C73.8021 42.1513 73.6005 42.664 72.6565 42.9155C71.9792 43.0755 71.8223 43.5424 72.0396 44.1441L78.5779 68.4841L44.4184 76.6323L35.8628 33.5831L67.5173 25.1329C68.4626 24.8801 69.3209 25.4698 69.5744 26.4109V26.4121Z" fill="#1E3B7A"/>
<path d="M65.7262 25.9154L69.9345 40.6486C70.2025 41.586 70.0082 42.1011 69.069 42.367C68.3941 42.5379 68.2444 43.0072 68.4714 43.6053L75.3936 67.8406L44.4199 76.6314L32.1328 33.6135L63.6509 24.6686C64.5914 24.4015 65.4594 24.9767 65.7274 25.9141L65.7262 25.9154Z" fill="#596B73"/>
<path d="M61.0604 58.4352L42.7883 63.6202L45.4791 73.0428L63.7513 67.8577L61.0604 58.4352Z" fill="white"/>
<path d="M60.0036 60.5313L44.4578 64.9427L44.7278 65.8884L60.2737 61.4769L60.0036 60.5313Z" fill="#3A2B2B"/>
<path d="M60.4931 62.2501L44.9473 66.6615L45.2173 67.6071L60.7632 63.1957L60.4931 62.2501Z" fill="#3A2B2B"/>
<path d="M60.985 63.9686L45.4391 68.38L45.7091 69.3256L61.255 64.9142L60.985 63.9686Z" fill="#3A2B2B"/>
<path d="M57.0283 66.948L45.9294 70.0975L46.1994 71.0431L57.2983 67.8936L57.0283 66.948Z" fill="#3A2B2B"/>
<path d="M47.1374 37.4956L48.8142 43.3646L46.3322 44.0698L45.4943 41.1347L43.4541 41.7135L44.2919 44.6486L41.8111 45.3526L40.1343 39.4836L40.9214 38.2261L42.7346 35.3319L47.1374 37.4956Z" fill="#AFEAEF"/>
<path d="M49.3092 39.9325L43.1717 36.8638L39.5766 42.6955L38.1569 41.8255L42.5524 34.6953L50.0564 38.4475L49.3092 39.9325Z" fill="#AFEAEF"/>
<path d="M40.4191 36.4755L39.006 36.8765L39.9229 40.0871L41.336 39.6862L40.4191 36.4755Z" fill="#AFEAEF"/>
<path d="M18.5492 54.8471H16.7383V52.9217H18.5492V54.8471ZM18.5492 51.1166H16.7383V49.1911H18.5492V51.1166ZM18.5492 47.386H16.7383V45.4606H18.5492V47.386ZM18.5492 43.6555H16.7383V41.7301H18.5492V43.6555ZM18.5492 39.925H16.7383V37.9995H18.5492V39.925ZM18.5492 36.1944H16.7383V34.269H18.5492V36.1944ZM18.5492 32.4639H16.7383V30.5385H18.5492V32.4639ZM18.5492 28.7334H16.7383V26.8079H18.5492V28.7334ZM18.5492 25.0028H16.7383V23.0774H18.5492V25.0028ZM18.5238 21.3529L16.7202 21.1893L16.8023 20.2903C16.8059 20.247 16.8108 20.2037 16.8144 20.1615L16.9061 19.2638L18.7073 19.4467L18.6047 20.4552L18.5226 21.3541L18.5238 21.3529ZM19.0683 17.9112L17.3733 17.277L17.7367 16.3131L18.0614 15.4707L19.7515 16.1181L19.3858 17.0664L19.0671 17.9112H19.0683ZM20.5073 14.733L19.0393 13.6752L19.6453 12.8401L20.1813 12.1132L21.6396 13.183L21.036 14.0013L20.5061 14.733H20.5073ZM22.7334 12.041L21.5938 10.6379L22.3978 9.98922L23.1064 9.42723L24.234 10.84L23.4372 11.473L22.7334 12.041ZM25.5885 10.0229L24.8581 8.37065L25.8046 7.95547L26.6363 7.59807L27.3534 9.25635L26.4178 9.65828L25.5897 10.0229H25.5885ZM28.8721 8.82433L28.6089 7.03849L30.526 6.76411L30.7771 8.55116L28.8709 8.82433H28.8721ZM56.8507 8.54875H54.9191V6.74365H56.8507V8.54875ZM53.1083 8.54875H51.1767V6.74365H53.1083V8.54875ZM49.3659 8.54875H47.4343V6.74365H49.3659V8.54875ZM45.6235 8.54875H43.692V6.74365H45.6235V8.54875ZM41.8811 8.54875H39.9496V6.74365H41.8811V8.54875ZM38.1387 8.54875H36.2072V6.74365H38.1387V8.54875ZM34.3963 8.54875H32.4648V6.74365H34.3963V8.54875Z" fill="#596B73"/>
<path d="M62.1984 7.64658L55.916 2.271V13.0222L62.1984 7.64658Z" fill="#596B73"/>
<path d="M84.8424 95.5268H82.9109V93.7217H84.8424V95.5268ZM81.1 95.5268H79.1685V93.7217H81.1V95.5268ZM77.3576 95.5268H75.4261V93.7217H77.3576V95.5268ZM73.6153 95.5268H71.6837V93.7217H73.6153V95.5268ZM69.8729 95.5268H67.9413V93.7217H69.8729V95.5268ZM66.1305 95.5268H64.1989V93.7217H66.1305V95.5268ZM62.3881 95.5268H60.4565V93.7217H62.3881V95.5268ZM86.78 95.5063L86.5289 93.7193L88.4351 93.4461L88.6983 95.232L86.7812 95.5063H86.78ZM90.6721 94.6712L89.955 93.0129L90.8906 92.611L91.7187 92.2463L92.4491 93.8986L91.5026 94.3138L90.6709 94.6712H90.6721ZM94.2008 92.842L93.0732 91.4292L93.87 90.7962L94.5738 90.2282L95.7134 91.6314L94.9094 92.28L94.2008 92.842ZM97.1259 90.156L95.6676 89.0862L96.2712 88.2679L96.8011 87.5362L98.2691 88.594L97.6631 89.4292L97.1271 90.156H97.1259ZM99.2446 86.801L97.5544 86.1535L97.9202 85.2052L98.2389 84.3605L99.9339 84.9946L99.5705 85.9586L99.2458 86.801H99.2446ZM100.4 83.0066L98.5987 82.8237L98.7013 81.8153L98.7834 80.9163L100.587 81.08L100.505 81.9789C100.501 82.0223 100.496 82.0656 100.493 82.1077L100.401 83.0054L100.4 83.0066ZM100.569 79.1931H98.758V77.2676H100.569V79.1931ZM100.569 75.4625H98.758V73.5371H100.569V75.4625ZM100.569 71.732H98.758V69.8066H100.569V71.732ZM100.569 68.0015H98.758V66.076H100.569V68.0015ZM100.569 64.2709H98.758V62.3455H100.569V64.2709ZM100.569 60.5404H98.758V58.6149H100.569V60.5404ZM100.569 56.8098H98.758V54.8844H100.569V56.8098ZM100.569 53.0793H98.758V51.1539H100.569V53.0793ZM100.569 49.3488H98.758V47.4233H100.569V49.3488Z" fill="#596B73"/>
<path d="M55.1084 94.6243L61.3908 99.9999V89.2476L55.1084 94.6243Z" fill="#596B73"/>
<path d="M77.3865 73.4111C82.1663 73.4111 86.0411 69.5486 86.0411 64.7839C86.0411 60.0193 82.1663 56.1567 77.3865 56.1567C72.6067 56.1567 68.7319 60.0193 68.7319 64.7839C68.7319 69.5486 72.6067 73.4111 77.3865 73.4111Z" fill="#1E3B7A"/>
<path d="M77.8477 72.9501C82.6275 72.9501 86.5023 69.0876 86.5023 64.323C86.5023 59.5583 82.6275 55.6958 77.8477 55.6958C73.0679 55.6958 69.1931 59.5583 69.1931 64.323C69.1931 69.0876 73.0679 72.9501 77.8477 72.9501Z" fill="#AFEAEF"/>
<path d="M77.8332 68.4097C77.2235 68.4097 76.6935 68.317 76.2408 68.1317C75.7881 67.9464 75.4368 67.6696 75.1845 67.3013C74.9322 66.9331 74.7994 66.4782 74.7861 65.9343H76.3302C76.3507 66.1846 76.4243 66.394 76.5535 66.5649C76.6827 66.7357 76.8553 66.8633 77.0714 66.9475C77.2875 67.0318 77.5374 67.0739 77.8175 67.0739C78.0975 67.0739 78.3245 67.0354 78.5261 66.9572C78.7277 66.8802 78.8834 66.7706 78.9933 66.631C79.1032 66.4915 79.1587 66.3278 79.1587 66.1425C79.1587 65.974 79.1092 65.832 79.009 65.7177C78.9088 65.6033 78.7639 65.5047 78.572 65.424C78.3812 65.3434 78.1482 65.27 77.8742 65.2062L77.046 65.004C76.4098 64.8524 75.9064 64.6105 75.537 64.2772C75.1676 63.9451 74.9829 63.4998 74.9829 62.9426C74.9829 62.4865 75.1073 62.0882 75.3559 61.7452C75.6046 61.4023 75.9451 61.1363 76.3772 60.945C76.8094 60.7548 77.3008 60.6586 77.8525 60.6586C78.415 60.6586 78.904 60.7548 79.3229 60.9474C79.7406 61.1399 80.0677 61.4071 80.3031 61.7477C80.5385 62.0882 80.6593 62.4817 80.6665 62.927H79.1273C79.0995 62.6334 78.974 62.4035 78.7494 62.2386C78.5237 62.0738 78.2207 61.9907 77.838 61.9907C77.5808 61.9907 77.3611 62.0268 77.18 62.099C76.999 62.1712 76.8613 62.2723 76.766 62.3999C76.6706 62.5287 76.6235 62.6755 76.6235 62.8403C76.6235 63.016 76.6778 63.1641 76.7865 63.2832C76.8951 63.4035 77.04 63.501 77.2211 63.5768C77.4022 63.6526 77.6014 63.7164 77.8175 63.767L78.4935 63.9342C78.8219 64.0088 79.1249 64.1075 79.4025 64.2303C79.6802 64.353 79.9216 64.5046 80.1257 64.6839C80.3309 64.8633 80.489 65.0726 80.6001 65.3145C80.7124 65.5564 80.7679 65.8332 80.7679 66.1473C80.7679 66.6094 80.652 67.0101 80.4202 67.3495C80.1884 67.6888 79.854 67.95 79.417 68.1341C78.98 68.3182 78.4525 68.4097 77.8319 68.4097H77.8332ZM77.5289 69.246V59.8186H78.1338V69.246H77.5289Z" fill="#1E3B7A"/>
<path d="M112 18.2519C112 23.4482 109.695 28.1066 106.051 31.2703C103.011 33.9081 99.0392 35.5051 94.6932 35.5051C90.3472 35.5051 86.3742 33.9081 83.3344 31.2703C79.6898 28.1078 77.3853 23.4482 77.3853 18.2519C77.3865 8.72462 85.1344 1 94.6932 1C104.252 1 112 8.72462 112 18.2519Z" fill="#AFEAEF"/>
<path d="M94.6932 20.4265C98.1089 20.4265 100.878 17.6663 100.878 14.2614C100.878 10.8566 98.1089 8.09644 94.6932 8.09644C91.2775 8.09644 88.5086 10.8566 88.5086 14.2614C88.5086 17.6663 91.2775 20.4265 94.6932 20.4265Z" fill="#1E3B7A"/>
<path d="M106.051 31.2691C103.011 33.907 99.0392 35.5039 94.6932 35.5039C90.3472 35.5039 86.3743 33.907 83.3345 31.2691C84.2809 25.8695 89.006 21.7659 94.6932 21.7659C100.38 21.7659 105.104 25.8695 106.051 31.2691Z" fill="#1E3B7A"/>
<path d="M37.6134 81.7602C37.6134 86.9565 35.3089 91.6149 31.6643 94.7786C28.6245 97.4164 24.6527 99.0133 20.3067 99.0133C15.9607 99.0133 11.9878 97.4164 8.94798 94.7786C5.30458 91.6149 3 86.9565 3 81.7602C3 72.2329 10.7479 64.5083 20.3079 64.5083C29.8679 64.5083 37.6147 72.2329 37.6147 81.7602H37.6134Z" fill="#AFEAEF"/>
<path d="M20.3067 83.9348C23.7224 83.9348 26.4913 81.1746 26.4913 77.7697C26.4913 74.3649 23.7224 71.6047 20.3067 71.6047C16.8911 71.6047 14.1221 74.3649 14.1221 77.7697C14.1221 81.1746 16.8911 83.9348 20.3067 83.9348Z" fill="#1E3B7A"/>
<path d="M31.6654 94.7774C28.6257 97.4153 24.6539 99.0122 20.3079 99.0122C15.9619 99.0122 11.9889 97.4153 8.94916 94.7774C9.89562 89.3778 14.6207 85.2742 20.3079 85.2742C25.9951 85.2742 30.719 89.3778 31.6654 94.7774Z" fill="#1E3B7A"/>
</svg>
