<svg width="125" height="125" viewBox="0 0 125 125" fill="none" xmlns="http://www.w3.org/2000/svg">
<path d="M111.826 6.57518L111.951 80.3624L111.917 80.3978L94.691 97.6836L94.6063 97.7683L42.9007 97.8556C42.2203 97.8568 41.669 97.3079 41.6677 96.6275L41.516 6.69407C41.5147 6.01362 42.0648 5.46344 42.7439 5.46218L99.6126 5.36732L95.097 14.1588C94.2864 15.736 94.9111 17.6762 96.4854 18.4856C97.0684 18.7841 97.7133 18.8967 98.3493 18.817C98.5466 18.7917 98.7426 18.7487 98.9374 18.6867C99.7542 18.4249 100.422 17.8595 100.811 17.0956L105.977 7.03809C106.116 6.76869 106.011 6.43732 105.741 6.29693C105.474 6.16034 105.142 6.26911 105.003 6.53597L99.839 16.5948C99.5785 17.0969 99.1409 17.4713 98.6022 17.6433C98.0636 17.8153 97.4894 17.7685 96.9862 17.5105C95.9467 16.9767 95.5383 15.6968 96.0694 14.6597L100.843 5.36479H101.356L101.626 5.36352H102.317H102.587H102.588L104.792 5.35973H105.062L105.753 5.3572H106.023L110.591 5.34961C111.272 5.34835 111.822 5.896 111.823 6.57645L111.826 6.57518Z" fill="#AFEAEF"/>
<path d="M104.941 53.9323L50.0226 54.0282L50.0274 56.8044L104.946 56.7085L104.941 53.9323Z" fill="#1E3B7A"/>
<path d="M104.954 61.3515L50.0355 61.4474L50.0404 64.2236L104.959 64.1277L104.954 61.3515Z" fill="#1E3B7A"/>
<path d="M104.967 68.7706L50.0486 68.8665L50.0534 71.6426L104.972 71.5468L104.967 68.7706Z" fill="#1E3B7A"/>
<path d="M104.98 76.1898L50.0614 76.2856L50.0662 79.0618L104.985 78.966L104.98 76.1898Z" fill="#1E3B7A"/>
<path d="M104.993 83.609L50.0743 83.7048L50.0792 86.481L104.998 86.3852L104.993 83.609Z" fill="#1E3B7A"/>
<path d="M112 80.3964L111.667 80.7303L94.6911 97.7669L94.6696 85.3379C94.6696 84.808 94.7505 84.2983 94.906 83.8214C95.5408 81.8496 97.3883 80.4204 99.5734 80.4166L112 80.3951V80.3964Z" fill="#1E3B7A"/>
<path d="M103.439 3.71291L102.591 5.36218H102.589H102.32H101.628H101.359L102.464 3.21205C102.601 2.94519 102.931 2.83641 103.2 2.97301H103.201C103.467 3.11214 103.574 3.44224 103.439 3.71164V3.71291Z" fill="#333333"/>
<path d="M106.129 5.15598L106.026 5.35582H105.757H105.065H104.796L105.156 4.6526C105.598 3.79255 105.257 2.7314 104.396 2.28873C103.535 1.84732 102.474 2.18881 102.033 3.04886L100.845 5.36214L96.0718 14.657C95.5395 15.6941 95.9492 16.9741 96.9886 17.5078C97.4906 17.7658 98.066 17.8139 98.6047 17.6406C99.1434 17.4686 99.5809 17.0942 99.8414 16.5921L105.006 6.53332C105.145 6.26519 105.476 6.15769 105.743 6.29428C106.015 6.43467 106.119 6.76604 105.979 7.03544L100.814 17.093C100.423 17.8556 99.7554 18.421 98.9398 18.6841C98.7451 18.746 98.5491 18.789 98.3518 18.8143C97.7157 18.894 97.0721 18.7814 96.4879 18.483C94.9135 17.6735 94.2888 15.7333 95.0994 14.1561L99.6151 5.36467L101.062 2.54801C101.56 1.57539 102.591 0.969561 103.684 1.00118C104.113 1.01509 104.521 1.12133 104.9 1.31611C105.575 1.66392 106.077 2.25458 106.31 2.98056C106.541 3.70654 106.478 4.47806 106.13 5.15345L106.129 5.15598Z" fill="#333333"/>
<path d="M62.205 19.5263L62.21 22.1748V22.2127C60.5307 22.6187 59.0765 23.5977 58.0624 24.9295V24.4602L54.6469 24.4653L54.6557 29.3916L50.503 29.3992L50.4916 22.1938L50.4878 20.3864V19.5453L52.2569 17.9365L56.3363 14.2345L62.205 19.5263Z" fill="#1E3B7A"/>
<path d="M66.306 22.2836L66.2327 22.3633C65.5119 22.1306 64.743 22.0041 63.9439 22.0054C63.3584 22.0054 62.7893 22.075 62.2431 22.2052L62.2102 22.1749L56.3415 16.8084L50.4917 22.1951L48.2118 24.2934L46.3959 22.3191L49.8948 19.0964L52.2545 16.9235L56.3351 13.1671L66.3047 22.2849L66.306 22.2836Z" fill="#1E3B7A"/>
<path d="M52.2535 14.9907L49.8888 14.9949L49.8982 20.3841L52.2629 20.38L52.2535 14.9907Z" fill="#1E3B7A"/>
<path d="M62.224 22.2748L62.1949 22.1509L62.2278 22.1433L62.2582 22.266L62.224 22.2748Z" fill="#7DC8D7"/>
<path d="M63.9565 35.8269C67.5008 35.8269 70.374 32.9531 70.374 29.4081C70.374 25.8632 67.5008 22.9894 63.9565 22.9894C60.4122 22.9894 57.5389 25.8632 57.5389 29.4081C57.5389 32.9531 60.4122 35.8269 63.9565 35.8269Z" fill="#7DC8D7"/>
<path d="M63.9501 32.4487C63.4987 32.4487 63.1041 32.3804 62.769 32.2438C62.4339 32.106 62.1722 31.9011 61.985 31.6279C61.7979 31.3547 61.698 31.0157 61.6879 30.611L62.8323 30.6085C62.8474 30.7944 62.9031 30.9499 62.9992 31.0777C63.0953 31.2042 63.223 31.299 63.3836 31.361C63.5442 31.423 63.7288 31.4546 63.9375 31.4546C64.1385 31.4546 64.313 31.4255 64.4623 31.3673C64.6115 31.3091 64.7266 31.2282 64.8087 31.1232C64.8897 31.0195 64.9301 30.8981 64.9301 30.759C64.9301 30.6338 64.8922 30.5275 64.8189 30.4428C64.7455 30.358 64.6368 30.2847 64.4951 30.2252C64.3535 30.1658 64.1803 30.1114 63.9767 30.0646L63.3621 29.9154C62.8904 29.8028 62.5161 29.6232 62.243 29.3766C61.9686 29.1299 61.832 28.7986 61.8308 28.385C61.8308 28.046 61.9218 27.7488 62.1064 27.4933C62.2911 27.2378 62.5427 27.0393 62.8626 26.8963C63.1825 26.7534 63.5467 26.6826 63.9564 26.6813C64.3737 26.6813 64.7367 26.7521 65.0477 26.8938C65.3576 27.0367 65.6003 27.234 65.7761 27.4882C65.9506 27.7412 66.0417 28.0346 66.0467 28.366L64.9061 28.3685C64.8859 28.1497 64.7923 27.979 64.6241 27.8563C64.4572 27.7336 64.2309 27.6729 63.9476 27.6729C63.7567 27.6729 63.5948 27.7007 63.4595 27.7551C63.3254 27.8095 63.223 27.8841 63.1535 27.9802C63.0839 28.0764 63.0485 28.1851 63.0485 28.3078C63.0485 28.4381 63.089 28.5481 63.1699 28.6367C63.2508 28.7252 63.3583 28.7986 63.4924 28.8542C63.6264 28.9099 63.7744 28.9579 63.935 28.9946L64.4357 29.1186C64.6798 29.1729 64.9036 29.2463 65.1097 29.3374C65.3158 29.4284 65.4954 29.541 65.6471 29.6738C65.7989 29.8066 65.9165 29.9634 65.9999 30.1418C66.0834 30.3214 66.1251 30.5275 66.1251 30.7615C66.1251 31.1055 66.0404 31.404 65.8684 31.657C65.6965 31.9099 65.4499 32.1047 65.1261 32.2426C64.8024 32.3804 64.4104 32.4487 63.9514 32.45L63.9501 32.4487ZM63.725 33.071L63.7137 26.0565H64.1613L64.1727 33.0697H63.725V33.071Z" fill="white"/>
<path d="M18.3117 57.9402H16.4149V55.9166H18.3117V57.9402ZM18.3117 54.0194H16.4149V51.9958H18.3117V54.0194ZM18.3117 50.0986H16.4149V48.075H18.3117V50.0986ZM18.3117 46.1778H16.4149V44.1541H18.3117V46.1778ZM18.3117 42.257H16.4149V40.2333H18.3117V42.257ZM18.3117 38.3362H16.4149V36.3125H18.3117V38.3362ZM18.3117 34.4153H16.4149V32.3917H18.3117V34.4153ZM18.3889 30.7386L16.5565 30.2479L16.8019 29.3309C16.8132 29.2867 16.8259 29.2424 16.8385 29.1981L17.094 28.285L18.92 28.7959L18.6645 29.7091C18.6544 29.7458 18.6443 29.7837 18.6342 29.8204L18.3889 30.7374V30.7386ZM19.6079 27.3945L18.0828 26.2651L18.6468 25.5024C18.6746 25.4658 18.7012 25.4291 18.729 25.3924L19.3019 24.6361L20.813 25.782L20.2401 26.5383C20.2174 26.5686 20.1934 26.6003 20.1706 26.6306L19.6066 27.3933L19.6079 27.3945ZM21.97 24.7259L20.9597 23.1196L21.7626 22.6149C21.8018 22.5909 21.841 22.5656 21.8802 22.5416L22.6895 22.0458L23.6797 23.6634L22.8704 24.1592C22.8375 24.1795 22.8046 24.1997 22.773 24.22L21.97 24.7246V24.7259ZM25.139 23.1032L24.7887 21.2389L25.7206 21.0631C25.7662 21.0542 25.8117 21.0466 25.8572 21.0378L26.7917 20.8759L27.1167 22.7452L26.1822 22.9071C26.1443 22.9134 26.1076 22.9198 26.0709 22.9273L25.139 23.1032ZM38.7188 22.7655H36.6956V20.8683H38.7188V22.7655ZM34.7988 22.7655H32.7755V20.8683H34.7988V22.7655ZM30.8787 22.7655H28.8554V20.8683H30.8787V22.7655Z" fill="#596B73"/>
<path d="M17.3634 60.5913L23.0134 54.0094H11.7147L17.3634 60.5913Z" fill="#596B73"/>
<path d="M36.2568 81.4842C36.2568 86.9455 33.8428 91.8414 30.0252 95.1666C26.8411 97.9389 22.6807 99.6173 18.1284 99.6173C13.5761 99.6173 9.41448 97.9389 6.23037 95.1666C2.414 91.8414 0 86.9455 0 81.4842C0 71.4709 8.1158 63.3523 18.1297 63.3523C28.1435 63.3523 36.2581 71.4709 36.2581 81.4842H36.2568Z" fill="#AFEAEF"/>
<path d="M18.1284 83.7696C21.7062 83.7696 24.6066 80.8686 24.6066 77.2901C24.6066 73.7116 21.7062 70.8107 18.1284 70.8107C14.5505 70.8107 11.6501 73.7116 11.6501 77.2901C11.6501 80.8686 14.5505 83.7696 18.1284 83.7696Z" fill="#1E3B7A"/>
<path d="M30.0264 95.1653C26.8423 97.9377 22.6819 99.6161 18.1296 99.6161C13.5773 99.6161 9.41567 97.9377 6.23157 95.1653C7.22296 89.4903 12.1724 85.1774 18.1296 85.1774C24.0868 85.1774 29.035 89.4903 30.0264 95.1653Z" fill="#1E3B7A"/>
<path d="M59.6445 45.5948L60.7168 50.7841L59.623 51.0105L58.5507 45.8211L59.6445 45.5948ZM61.4616 50.6298L60.1098 50.9094L59.9151 49.9684L61.2176 49.699C61.5451 49.6319 61.8081 49.5168 62.0054 49.3562C62.2039 49.1956 62.3329 48.9806 62.3949 48.7124C62.4568 48.4443 62.448 48.1167 62.3683 47.7322C62.2886 47.3477 62.1685 47.0467 62.0054 46.8266C61.8422 46.6066 61.6387 46.4611 61.3933 46.3916C61.148 46.322 60.8622 46.322 60.5372 46.389L59.2107 46.6635L59.016 45.7225L60.4057 45.4354C60.928 45.3279 61.3984 45.338 61.8182 45.4683C62.2368 45.5985 62.5871 45.8363 62.8691 46.1803C63.151 46.5244 63.347 46.967 63.4583 47.5058C63.5696 48.0446 63.5646 48.5328 63.4419 48.9616C63.3192 49.3916 63.0891 49.7496 62.754 50.0354C62.4189 50.3212 61.9877 50.5185 61.4604 50.6273L61.4616 50.6298Z" fill="#596B73"/>
<path d="M64.5964 44.5715L65.6687 49.7609L64.5749 49.9873L63.5026 44.7979L64.5964 44.5715Z" fill="#596B73"/>
<path d="M68.2748 49.2993C67.8575 49.3853 67.4795 49.3966 67.1431 49.3334C66.8067 49.2702 66.526 49.1298 66.3009 48.9122C66.0758 48.6947 65.9203 48.4 65.833 48.0282L66.8914 47.8093C66.9408 47.9788 67.0217 48.1129 67.1342 48.2115C67.2468 48.3102 67.3834 48.3734 67.5439 48.4013C67.7045 48.4291 67.8816 48.4228 68.0738 48.3823C68.266 48.3418 68.4165 48.2836 68.5429 48.2014C68.6694 48.1192 68.7617 48.0231 68.8173 47.9105C68.873 47.798 68.8869 47.6791 68.8616 47.5513C68.8376 47.435 68.7832 47.3452 68.6985 47.2807C68.6137 47.2162 68.4999 47.1694 68.357 47.1403C68.2142 47.1112 68.0447 47.0947 67.8474 47.0897L67.2506 47.0682C66.7928 47.0543 66.4135 46.9581 66.1125 46.7823C65.8115 46.6065 65.6219 46.3258 65.5435 45.9425C65.479 45.6289 65.5068 45.3367 65.6294 45.066C65.7508 44.7954 65.9468 44.5639 66.2162 44.3717C66.4855 44.1794 66.8093 44.0441 67.1873 43.9657C67.5654 43.8873 67.922 43.8822 68.2369 43.9556C68.5505 44.0289 68.8123 44.1655 69.0222 44.3666C69.2321 44.5677 69.3712 44.8207 69.4382 45.1267L68.3836 45.3443C68.3229 45.1457 68.204 45.0066 68.0257 44.9244C67.8474 44.8422 67.6274 44.8283 67.3656 44.8826C67.1886 44.9193 67.0445 44.975 66.9306 45.0509C66.8168 45.1267 66.7359 45.2153 66.6891 45.3165C66.6423 45.4176 66.6309 45.5264 66.6537 45.6402C66.679 45.7604 66.7372 45.8553 66.8282 45.9223C66.9193 45.9893 67.0331 46.0361 67.1671 46.0627C67.3024 46.0892 67.4478 46.1044 67.6034 46.1082L68.0902 46.1272C68.3254 46.1322 68.548 46.1563 68.7554 46.2018C68.9628 46.2473 69.1499 46.3169 69.3156 46.4105C69.4812 46.5041 69.6203 46.6268 69.7303 46.7773C69.8416 46.9278 69.9187 47.1099 69.963 47.3262C70.0288 47.6449 70.006 47.9371 69.8947 48.2027C69.7834 48.4696 69.5912 48.696 69.3181 48.8844C69.045 49.0729 68.6959 49.2107 68.2711 49.2993H68.2748Z" fill="#596B73"/>
<path d="M73.1117 48.2963C72.6514 48.3912 72.2177 48.3722 71.8105 48.2381C71.4033 48.1041 71.0518 47.8612 70.7597 47.5071C70.4663 47.1542 70.2615 46.6964 70.1451 46.1335C70.0288 45.5707 70.0351 45.0623 70.1654 44.6209C70.2956 44.1782 70.522 43.8165 70.8444 43.5332C71.1669 43.2499 71.5563 43.0614 72.0116 42.9665C72.3138 42.9046 72.6021 42.8881 72.8765 42.9197C73.1522 42.9514 73.4051 43.0273 73.6365 43.1474C73.8679 43.2676 74.0715 43.432 74.2447 43.6394C74.418 43.8468 74.5533 44.0973 74.6507 44.3894L73.5429 44.6183C73.4924 44.4805 73.4253 44.3616 73.3406 44.2604C73.2559 44.1592 73.156 44.0795 73.0409 44.0214C72.9258 43.9632 72.8006 43.9252 72.6653 43.9088C72.53 43.8924 72.3871 43.8987 72.2354 43.9303C71.9711 43.9847 71.7523 44.0998 71.5791 44.2743C71.4059 44.4489 71.2895 44.674 71.2314 44.9484C71.1732 45.2229 71.1808 45.5416 71.2566 45.9034C71.3325 46.2651 71.4527 46.5712 71.6158 46.8001C71.7789 47.029 71.9736 47.1871 72.2 47.2731C72.4263 47.3591 72.6704 47.3756 72.9322 47.3212C73.0788 47.2908 73.2104 47.2428 73.328 47.1783C73.4456 47.1125 73.5455 47.0328 73.6264 46.9379C73.7086 46.8431 73.7718 46.7356 73.8148 46.6142C73.8591 46.4927 73.878 46.3599 73.8717 46.2158L74.9794 45.9868C75.0009 46.2322 74.9794 46.4763 74.9112 46.7204C74.8441 46.9645 74.7316 47.1922 74.5748 47.4059C74.418 47.6184 74.2169 47.8031 73.9741 47.9586C73.7301 48.1142 73.443 48.2268 73.1105 48.2951L73.1117 48.2963Z" fill="#596B73"/>
<path d="M75.9039 47.6463L74.8315 42.4569L75.9254 42.2305L76.368 44.373L78.5961 43.9126L78.1535 41.7701L79.2473 41.5437L80.3196 46.7331L79.2258 46.9595L78.7832 44.8144L76.5551 45.2748L76.9977 47.4199L75.9039 47.6463Z" fill="#596B73"/>
<path d="M81.88 46.4118L80.7065 46.6546L81.4248 41.0947L82.8386 40.8025L85.6964 45.6238L84.5267 45.8654L82.3972 42.1292L82.3555 42.1381L81.88 46.4131V46.4118ZM81.3881 44.3843L84.1638 43.8114L84.3408 44.6677L81.5652 45.2406L81.3881 44.3843Z" fill="#596B73"/>
<path d="M86.0833 45.5429L85.011 40.3535L87.0557 39.931C87.4477 39.8501 87.7968 39.8501 88.104 39.9323C88.4101 40.0145 88.663 40.1675 88.8628 40.3914C89.0626 40.6153 89.1979 40.8986 89.2687 41.2426C89.3395 41.5866 89.3268 41.8978 89.2295 42.1773C89.1321 42.4568 88.9563 42.6908 88.7009 42.8805C88.4455 43.0702 88.1192 43.2055 87.7196 43.289L86.3514 43.5723L86.1693 42.6908L87.3605 42.4442C87.5717 42.3999 87.7399 42.3354 87.8663 42.2494C87.9928 42.1634 88.0775 42.0559 88.123 41.9281C88.1685 41.8004 88.1723 41.6499 88.1369 41.4779C88.1015 41.3058 88.037 41.1655 87.9434 41.0617C87.8511 40.9593 87.7285 40.891 87.5767 40.8581C87.425 40.8252 87.2429 40.8303 87.0317 40.8746L86.2894 41.0276L87.1759 45.319L86.082 45.5454L86.0833 45.5429ZM88.9627 44.9484L87.2113 42.8476L88.3949 42.6035L90.1741 44.698L88.9627 44.9484Z" fill="#596B73"/>
<path d="M92.9055 44.2061C92.4174 44.3072 91.9685 44.2883 91.5562 44.1491C91.144 44.01 90.7937 43.7634 90.5067 43.4067C90.2183 43.0513 90.0185 42.5998 89.906 42.0547C89.7935 41.5095 89.7985 40.991 89.93 40.5483C90.0628 40.1056 90.2904 39.7414 90.6142 39.4543C90.9379 39.1672 91.3274 38.9762 91.7851 38.8813C92.0772 38.8206 92.3592 38.8067 92.6298 38.8396C92.9004 38.8725 93.1508 38.9458 93.3797 39.0622C93.6098 39.1786 93.8084 39.3291 93.9765 39.5163C94.1447 39.7034 94.2725 39.9222 94.361 40.1727L93.2494 40.4016C93.1887 40.2852 93.1167 40.1866 93.0332 40.1031C92.9498 40.0196 92.8549 39.9551 92.7474 39.9083C92.6412 39.8615 92.5249 39.8324 92.4009 39.8198C92.2758 39.8084 92.143 39.8173 92.0013 39.8464C91.7371 39.9007 91.517 40.0146 91.3438 40.1879C91.1705 40.3611 91.0529 40.585 90.9922 40.862C90.9315 41.139 90.9391 41.4564 91.0137 41.8169C91.0883 42.1774 91.2072 42.472 91.3703 42.7022C91.5335 42.9324 91.7295 43.093 91.9584 43.1854C92.1872 43.2777 92.4376 43.2954 92.712 43.2385C92.9599 43.1866 93.1635 43.0981 93.3203 42.9729C93.4771 42.8477 93.5858 42.6934 93.6465 42.5113C93.7072 42.3291 93.7148 42.128 93.6693 41.908L93.8994 41.8966L92.5653 42.1723L92.3946 41.3464L94.5646 40.8987L94.6999 41.5538C94.7934 42.0091 94.7783 42.4202 94.6531 42.787C94.5279 43.1538 94.3142 43.4598 94.0132 43.7052C93.7123 43.9506 93.343 44.1175 92.9068 44.2086L92.9055 44.2061Z" fill="#596B73"/>
<path d="M95.7254 43.5509L94.6531 38.3615L98.1495 37.6393L98.3367 38.5449L95.9341 39.0419L96.1857 40.2612L98.4075 39.8021L98.5908 40.6899L96.3691 41.149L96.6321 42.4201L99.0423 41.9218L99.2294 42.8274L95.7267 43.5509H95.7254Z" fill="#596B73"/>
<path d="M99.8807 37.2814L100.953 42.4708L99.8592 42.6972L98.7869 37.5078L99.8807 37.2814ZM101.698 42.3165L100.346 42.596L100.151 41.655L101.454 41.3856C101.781 41.3186 102.044 41.2035 102.242 41.0429C102.44 40.8822 102.569 40.6672 102.631 40.3991C102.693 40.1309 102.684 39.8034 102.605 39.4189C102.525 39.0344 102.405 38.7334 102.242 38.5133C102.078 38.2932 101.875 38.1478 101.63 38.0782C101.384 38.0087 101.098 38.0086 100.773 38.0757L99.4469 38.3501L99.2522 37.4091L100.642 37.122C101.164 37.0145 101.635 37.0247 102.054 37.1549C102.473 37.2852 102.823 37.523 103.105 37.867C103.387 38.211 103.583 38.6537 103.695 39.1925C103.806 39.7313 103.801 40.2195 103.678 40.6482C103.555 41.0783 103.325 41.4362 102.99 41.722C102.655 42.0079 102.224 42.2052 101.697 42.314L101.698 42.3165Z" fill="#596B73"/>
<path d="M106.913 46.1374L58.8831 56.0609C57.0837 56.4327 55.3184 55.2717 54.9466 53.4719L53.2825 45.4165C52.9107 43.6167 54.0715 41.8511 55.871 41.4792L103.901 31.5558C105.7 31.1839 107.465 32.345 107.837 34.1448L109.501 42.2002C109.873 44 108.712 45.7656 106.913 46.1374ZM56.2099 43.1146C55.312 43.3005 54.7329 44.1821 54.9175 45.0801L56.5816 53.1355C56.7675 54.0334 57.6489 54.6127 58.5467 54.4281L106.576 44.5046C107.474 44.3187 108.053 43.4371 107.869 42.5391L106.205 34.4838C106.019 33.5858 105.137 33.0065 104.24 33.1911L56.2099 43.1146Z" fill="#596B73"/>
</svg>
