<svg width="126" height="126" viewBox="0 0 126 126" fill="none" xmlns="http://www.w3.org/2000/svg">
<path d="M108.314 96.1769H17.3774L23.9849 31.508C23.9849 30.5078 24.8009 29.6973 25.808 29.6973H62.0865C63.963 29.6973 65.6817 30.7417 66.5373 32.4007L69.4921 38.1351H113.1C114.107 38.1351 114.923 38.9456 114.923 39.9458L108.316 96.1769H108.314Z" fill="#1E3B7A"/>
<path d="M2.27989 22.636L17.7362 76.635C17.8908 77.1751 18.4569 77.4884 19.0007 77.3349L91.0491 56.9911C91.5928 56.8376 91.9083 56.2753 91.7537 55.7352L76.2974 1.7362C76.1428 1.19612 75.5767 0.88278 75.0329 1.03632L2.98456 21.3801C2.4408 21.5336 2.12531 22.0959 2.27989 22.636Z" fill="#8FC7D6"/>
<path d="M58.6514 29.6063L14.6472 42.0315L15.2794 44.2403L59.2836 31.8151L58.6514 29.6063Z" fill="#1E3B7A"/>
<path d="M60.3411 35.5104L16.3369 47.9355L16.9691 50.1443L60.9733 37.7192L60.3411 35.5104Z" fill="#1E3B7A"/>
<path d="M62.0304 41.4131L18.0262 53.8383L18.6584 56.047L62.6626 43.6219L62.0304 41.4131Z" fill="#1E3B7A"/>
<path d="M63.72 47.3159L19.7158 59.7411L20.348 61.9498L64.3522 49.5247L63.72 47.3159Z" fill="#1E3B7A"/>
<path d="M65.4106 53.2188L21.4064 65.6439L22.0386 67.8527L66.0428 55.4275L65.4106 53.2188Z" fill="#1E3B7A"/>
<path d="M71.7633 14.3453L74.2382 22.9956L70.5679 24.0325L69.3304 19.7067L66.3119 20.559L67.5493 24.8847L63.879 25.9216L61.4028 17.2701L62.5677 15.4163L65.2514 11.1538L71.7633 14.3453Z" fill="white"/>
<path d="M74.9728 17.939L65.8981 13.4122L60.5765 22.003L58.4759 20.7195L64.9828 10.2156L76.0792 15.7502L74.9728 17.939Z" fill="white"/>
<path d="M61.8285 12.8302L59.7381 13.4204L61.0924 18.1517L63.1827 17.5615L61.8285 12.8302Z" fill="white"/>
<path d="M120.343 34.4069L41.2066 20.4911C40.6104 20.3862 40.0416 20.7812 39.9361 21.3733L30.6101 73.6915C30.5045 74.2836 30.9022 74.8485 31.4983 74.9534L110.635 88.8692C111.231 88.9741 111.8 88.5791 111.906 87.987L121.232 35.6688C121.337 35.0767 120.939 34.5118 120.343 34.4069Z" fill="#AFEAEF"/>
<path d="M44.5414 34.0418L44.4664 34.4626L112.435 46.4146L112.51 45.9938L44.5414 34.0418Z" fill="white"/>
<path d="M54.0011 35.8827L47.7011 71.2251L48.1249 71.2996L54.4249 35.9572L54.0011 35.8827Z" fill="white"/>
<path d="M80.9308 40.6184L74.6308 75.9608L75.0545 76.0353L81.3545 40.6929L80.9308 40.6184Z" fill="white"/>
<g opacity="0.6">
<path d="M43.1851 41.6506L43.1352 41.9308L111.104 53.8827L111.153 53.6026L43.1851 41.6506Z" fill="white"/>
</g>
<g opacity="0.6">
<path d="M42.1947 47.2039L42.1448 47.484L110.113 59.436L110.163 59.1558L42.1947 47.2039Z" fill="white"/>
</g>
<g opacity="0.6">
<path d="M41.2032 52.7556L41.1532 53.0358L109.122 64.9877L109.172 64.7076L41.2032 52.7556Z" fill="white"/>
</g>
<g opacity="0.6">
<path d="M40.2141 58.309L40.1642 58.5891L108.133 70.5411L108.182 70.2609L40.2141 58.309Z" fill="white"/>
</g>
<g opacity="0.6">
<path d="M39.2238 63.8622L39.1738 64.1423L107.142 76.0943L107.192 75.8141L39.2238 63.8622Z" fill="white"/>
</g>
<path d="M38.2461 69.3445L38.1711 69.7654L106.139 81.7173L106.214 81.2965L38.2461 69.3445Z" fill="white"/>
<path d="M51.8455 20.9953L50.8766 22.256H50.8754L50.6462 22.2155L50.0606 22.1118L49.8314 22.0714L51.0931 20.4288C51.2484 20.224 51.545 20.1835 51.7525 20.3378H51.7538C51.9588 20.4958 51.9995 20.7892 51.8442 20.9953H51.8455Z" fill="#333333"/>
<path d="M53.9054 22.6138L53.7882 22.7668L53.5591 22.7263L52.9735 22.6226L52.7443 22.5834L53.1568 22.0448C53.6609 21.3873 53.5336 20.444 52.8716 19.942C52.2083 19.4412 51.2586 19.5689 50.7544 20.2252L49.3973 21.9929L43.9433 29.0955C43.3347 29.8883 43.4875 31.0276 44.2883 31.6333C44.6753 31.9266 45.154 32.0531 45.6378 31.9886C46.1203 31.9241 46.5481 31.6763 46.8447 31.2919L52.7456 23.6051C52.9047 23.4003 53.2001 23.3598 53.4063 23.5141C53.6151 23.6734 53.6533 23.968 53.4942 24.1729L47.592 31.8584C47.1452 32.4413 46.4946 32.8168 45.7626 32.9142C45.5882 32.9369 45.415 32.9445 45.2444 32.9357C44.6932 32.9066 44.1648 32.7144 43.7154 32.3755C42.5034 31.4575 42.2692 29.7302 43.1947 28.5252L48.3533 21.8071L50.0058 19.6549C50.5749 18.9114 51.5399 18.5574 52.4629 18.7483C52.8232 18.8242 53.1542 18.9746 53.4458 19.1959C53.9652 19.5904 54.3013 20.162 54.3891 20.8094C54.4757 21.4543 54.3051 22.0954 53.9079 22.6113L53.9054 22.6138Z" fill="#333333"/>
<path d="M108.314 97.0002H17.3774V41.8199C17.3774 40.8197 18.1935 40.0092 19.2005 40.0092H52.5343C54.4109 40.0092 56.1296 41.0536 56.9851 42.7126L59.94 48.447H106.494C107.501 48.447 108.317 49.2575 108.317 50.2577V97.0002H108.314Z" fill="#1E3B7A"/>
<path d="M108.314 96.1771H17.3774V40.9968C17.3774 39.9966 18.1935 39.186 19.2005 39.186H52.5343C54.4109 39.186 56.1296 40.2305 56.9851 41.8895L59.94 47.6239H106.494C107.501 47.6239 108.317 48.4344 108.317 49.4346V96.1771H108.314Z" fill="#596B73"/>
<path d="M42.5226 77.9687V88.7104H37.9649V83.3401H34.2181V88.7104H29.6604V77.9687L31.607 76.2186L36.0921 72.1913L42.5226 77.9687Z" fill="#AFEAEF"/>
<path d="M45.0294 83.1379L36.0921 74.9959L27.1549 83.1379L25.1638 80.9832L36.0921 71.0267L47.0205 80.9832L45.0294 83.1379Z" fill="#AFEAEF"/>
<path d="M31.607 73.0107H29.0124V78.8855H31.607V73.0107Z" fill="#AFEAEF"/>
</svg>
