<svg width="125" height="125" viewBox="0 0 125 125" fill="none" xmlns="http://www.w3.org/2000/svg">
<path d="M95.9334 10.8893L30.3276 3.70982C29.671 3.63796 29.0803 4.11073 29.0083 4.76578L19.4713 91.5002C19.3992 92.1553 19.8731 92.7445 20.5297 92.8164L86.1355 99.9959C86.7921 100.068 87.3828 99.5949 87.4548 98.9399L96.9918 12.2054C97.0639 11.5504 96.59 10.9611 95.9334 10.8893Z" fill="#8FC7D6"/>
<path d="M87.0335 8.37897L87.6101 80.269L87.5766 80.3037L70.8576 97.2508L70.7754 97.3339L20.2689 97.7359C19.6043 97.7417 19.0625 97.2092 19.0567 96.5473L18.355 8.92647C18.3492 8.26347 18.883 7.72405 19.5476 7.71943L75.0964 7.2782L70.7395 15.8707C69.958 17.4116 70.5797 19.299 72.1231 20.0775C72.6951 20.3651 73.3249 20.4713 73.9455 20.3893C74.1377 20.3639 74.3299 20.32 74.5186 20.2588C75.3152 19.9978 75.9636 19.4433 76.3399 18.6972L81.3243 8.86641C81.4586 8.60305 81.3544 8.28079 81.0881 8.14565C80.8265 8.01513 80.5034 8.12139 80.3691 8.38359L75.387 18.2155C75.1358 18.7064 74.7108 19.0737 74.1852 19.2447C73.6595 19.4156 73.098 19.3729 72.6059 19.1245C71.587 18.6105 71.1795 17.3665 71.6936 16.3524L76.2994 7.26664L76.8007 7.26202H77.0647L77.7397 7.25509H78.0037L78.0048 7.25278L80.1584 7.23546L80.4212 7.23199L81.0962 7.22622H81.3602L85.8225 7.18926C86.487 7.18348 87.0278 7.71481 87.0324 8.37666L87.0335 8.37897Z" fill="#AFEAEF"/>
<path d="M80.5993 58.4689L26.9557 58.8986L26.9775 61.6036L80.6211 61.174L80.5993 58.4689Z" fill="#1E3B7A"/>
<path d="M80.6578 64.7206L27.0142 65.1503L27.0359 67.8553L80.6796 67.4257L80.6578 64.7206Z" fill="#1E3B7A"/>
<path d="M80.715 70.9734L27.0714 71.4031L27.0932 74.1082L80.7368 73.6785L80.715 70.9734Z" fill="#1E3B7A"/>
<path d="M80.7734 77.2262L27.1298 77.6559L27.1515 80.361L80.7952 79.9313L80.7734 77.2262Z" fill="#1E3B7A"/>
<path d="M80.8319 83.4779L27.1882 83.9076L27.21 86.6127L80.8536 86.183L80.8319 83.4779Z" fill="#1E3B7A"/>
<path d="M87.6587 80.3025L87.3357 80.6294L70.8576 97.3328L70.7603 85.2242C70.7557 84.7079 70.8333 84.2112 70.9826 83.7446C71.5905 81.8191 73.3874 80.4157 75.5201 80.3995L87.6576 80.3025H87.6587Z" fill="#1E3B7A"/>
<path d="M78.8246 5.6414L78.006 7.25387H78.0049L77.7409 7.25618L77.0659 7.26196H76.8019L77.8682 5.16205C77.9991 4.90101 78.3221 4.79359 78.5849 4.92411H78.5872C78.8477 5.0581 78.9554 5.3792 78.8246 5.64256V5.6414Z" fill="#333333"/>
<path d="M81.4597 7.03098L81.3613 7.22618H81.0973L80.4223 7.23311L80.1595 7.23658L80.508 6.54816C80.9341 5.70727 80.596 4.6758 79.7508 4.24958C78.9067 3.82452 77.8728 4.16411 77.4467 5.00499L76.3005 7.26661L71.6947 16.3523C71.1818 17.3665 71.5893 18.6117 72.607 19.1245C73.0991 19.3728 73.6607 19.4156 74.1863 19.2446C74.712 19.0737 75.1369 18.7064 75.3881 18.2155L80.3702 8.38356C80.5045 8.12136 80.8264 8.01509 81.0892 8.14561C81.3555 8.28076 81.4586 8.60302 81.3254 8.86637L76.341 18.6971C75.9647 19.4433 75.3163 19.9977 74.5198 20.2588C74.3299 20.32 74.1388 20.3639 73.9466 20.3893C73.326 20.4713 72.6962 20.365 72.1242 20.0774C70.5808 19.2989 69.9591 17.4115 70.7406 15.8707L75.0975 7.27816L76.4927 4.52564C76.9732 3.57503 77.9759 2.97901 79.0457 3.00211C79.4637 3.01366 79.8643 3.113 80.2348 3.30127C80.8959 3.63624 81.3903 4.208 81.623 4.9149C81.8534 5.62064 81.7967 6.37259 81.4609 7.03329L81.4597 7.03098Z" fill="#333333"/>
<path d="M36.3394 34.4638C39.9119 34.4638 42.8081 31.5746 42.8081 28.0105C42.8081 24.4464 39.9119 21.5571 36.3394 21.5571C32.7668 21.5571 29.8706 24.4464 29.8706 28.0105C29.8706 31.5746 32.7668 34.4638 36.3394 34.4638Z" fill="#1E3B7A"/>
<path d="M36.6844 34.1196C40.257 34.1196 43.1532 31.2303 43.1532 27.6662C43.1532 24.1022 40.257 21.2129 36.6844 21.2129C33.1119 21.2129 30.2157 24.1022 30.2157 27.6662C30.2157 31.2303 33.1119 34.1196 36.6844 34.1196Z" fill="#1E3B7A"/>
<path d="M36.6728 30.7237C36.2178 30.7237 35.8207 30.6543 35.4826 30.5157C35.1445 30.3771 34.8817 30.1704 34.6929 29.8943C34.5042 29.6194 34.4046 29.2787 34.3954 28.8721H35.5497C35.5648 29.0592 35.6204 29.2163 35.7165 29.3434C35.8126 29.4704 35.9422 29.5663 36.1032 29.6298C36.2653 29.6933 36.4505 29.7245 36.6612 29.7245C36.872 29.7245 37.0398 29.6956 37.1904 29.6379C37.3409 29.5801 37.4578 29.4981 37.54 29.3942C37.6222 29.2891 37.6639 29.1678 37.6639 29.0292C37.6639 28.9033 37.6269 28.797 37.5516 28.7115C37.4763 28.6261 37.3687 28.5521 37.2251 28.4921C37.0815 28.432 36.9079 28.3777 36.7029 28.3292L36.0846 28.1779C35.6088 28.0647 35.2325 27.8833 34.9569 27.635C34.6814 27.3867 34.5436 27.054 34.5436 26.637C34.5436 26.2963 34.6362 25.9971 34.8226 25.7419C35.009 25.4854 35.2626 25.2856 35.5856 25.1435C35.9087 25.0015 36.2757 24.9298 36.6879 24.9298C37.1001 24.9298 37.474 25.0015 37.7866 25.1458C38.0993 25.2902 38.3436 25.4889 38.5195 25.7442C38.6955 25.9994 38.7858 26.2928 38.7905 26.6266H37.6408C37.6199 26.4072 37.5261 26.2351 37.3583 26.1115C37.1904 25.9879 36.9623 25.9255 36.6763 25.9255C36.4841 25.9255 36.3197 25.9532 36.1842 26.0064C36.0488 26.0607 35.9457 26.1357 35.8751 26.2316C35.8045 26.3275 35.7686 26.4372 35.7686 26.5608C35.7686 26.6925 35.8091 26.8022 35.8901 26.8923C35.9712 26.9824 36.0789 27.0552 36.2143 27.1118C36.3498 27.1684 36.498 27.2157 36.6601 27.2538L37.1649 27.3786C37.4104 27.434 37.6373 27.508 37.8445 27.6004C38.0518 27.6928 38.2324 27.806 38.3852 27.9388C38.5381 28.0728 38.6562 28.2299 38.7407 28.4101C38.8241 28.5902 38.8657 28.7982 38.8657 29.0326C38.8657 29.378 38.7789 29.6783 38.6052 29.9324C38.4316 30.1865 38.1815 30.3818 37.855 30.5192C37.5285 30.6567 37.1336 30.726 36.6705 30.726L36.6728 30.7237ZM36.4459 31.3485V24.2969H36.8974V31.3485H36.4459Z" fill="white"/>
<path d="M24.6952 30.9732H23.2988V25.1921C23.2988 19.426 28.0019 14.7341 33.7817 14.7341H36.3486V16.1271H33.7817C28.7719 16.1271 24.6952 20.1941 24.6952 25.1921V30.9732Z" fill="#1E3B7A"/>
<path d="M35.4525 18.4881L40.7577 15.4318L35.4525 12.3755V18.4881Z" fill="#1E3B7A"/>
<path d="M37.9199 39.8167H35.353V38.4237H37.9199C42.9298 38.4237 47.0065 34.3567 47.0065 29.3587V23.5776H48.4028V29.3587C48.4028 35.1248 43.6998 39.8167 37.9199 39.8167Z" fill="#1E3B7A"/>
<path d="M36.2492 36.0638L30.9429 39.1201L36.2492 42.1764V36.0638Z" fill="#1E3B7A"/>
<path d="M75.6267 54.4166L44.0078 48.602C42.5616 48.3363 41.6018 46.9456 41.8681 45.5029L43.3432 37.5226C43.6095 36.0799 45.0035 35.1224 46.4496 35.388L78.0686 41.2026C79.5147 41.4683 80.4745 42.859 80.2082 44.3017L78.7332 52.282C78.4669 53.7247 77.0728 54.6822 75.6267 54.4166ZM46.2227 36.6147C45.455 36.4738 44.714 36.982 44.5728 37.7478L43.0977 45.7282C42.9565 46.494 43.4659 47.2332 44.2335 47.3741L75.8525 53.1887C76.6201 53.3296 77.3611 52.8214 77.5024 52.0556L78.9775 44.0753C79.1187 43.3095 78.6093 42.5702 77.8416 42.4293L46.2227 36.6147Z" fill="#1E3B7A"/>
<path d="M49.6289 45.6034C49.1704 45.519 48.7791 45.34 48.4537 45.0651C48.1284 44.7902 47.8968 44.4367 47.7602 44.0024C47.6224 43.5693 47.6051 43.0726 47.7081 42.5136C47.8112 41.9545 48.0068 41.4902 48.2916 41.1333C48.5765 40.7763 48.9203 40.528 49.3233 40.3882C49.7262 40.2485 50.1546 40.2208 50.6085 40.3039C50.9095 40.3594 51.1804 40.4529 51.4212 40.5846C51.6621 40.7163 51.867 40.8803 52.036 41.0767C52.2039 41.273 52.329 41.4994 52.4112 41.7547C52.4934 42.01 52.5246 42.2895 52.5038 42.5933L51.3992 42.39C51.4039 42.2456 51.3865 42.1104 51.346 41.9869C51.3055 41.8621 51.2429 41.7524 51.1596 41.6553C51.0762 41.5583 50.9743 41.4775 50.8562 41.4116C50.7381 41.3458 50.6038 41.2984 50.4533 41.2719C50.1893 41.2234 49.945 41.2476 49.7204 41.3435C49.4958 41.4393 49.3047 41.6022 49.1484 41.8332C48.9921 42.0631 48.881 42.3588 48.8138 42.7192C48.7467 43.0795 48.7444 43.4053 48.8092 43.6767C48.874 43.9482 48.9944 44.1653 49.1693 44.3282C49.3453 44.4922 49.5629 44.5973 49.8246 44.6458C49.9705 44.6724 50.1094 44.6782 50.2414 44.662C50.3734 44.6458 50.495 44.61 50.6061 44.5534C50.7173 44.498 50.8157 44.4217 50.9014 44.327C50.9871 44.2323 51.0542 44.1168 51.1028 43.9828L52.2074 44.1861C52.1356 44.4183 52.0233 44.6343 51.8705 44.8329C51.7176 45.0316 51.5289 45.1991 51.3055 45.3365C51.082 45.4728 50.8284 45.5676 50.5459 45.6195C50.2634 45.6715 49.9566 45.6669 49.6255 45.6057L49.6289 45.6034Z" fill="#1E3B7A"/>
<path d="M52.4402 46.048L53.3942 40.8872L54.4849 41.0882L53.6976 45.3481L55.916 45.7558L55.7492 46.6568L52.4402 46.048Z" fill="#1E3B7A"/>
<path d="M58.3601 47.2088C57.9016 47.1245 57.5091 46.9443 57.1814 46.6694C56.8538 46.3945 56.621 46.0399 56.4809 45.6056C56.3409 45.1713 56.3223 44.6746 56.4254 44.1167C56.5284 43.5588 56.7241 43.0934 57.0112 42.7364C57.2972 42.3795 57.6422 42.1312 58.0463 41.9926C58.4504 41.8528 58.8811 41.8251 59.3396 41.9094C59.7981 41.9937 60.1906 42.1728 60.5183 42.4465C60.8459 42.7203 61.0787 43.0749 61.2176 43.5103C61.3565 43.9458 61.3739 44.4448 61.2697 45.0084C61.1655 45.5721 60.9721 46.0284 60.6873 46.3841C60.4025 46.7399 60.0586 46.9882 59.6545 47.1268C59.2505 47.2666 58.8197 47.2943 58.3612 47.21L58.3601 47.2088ZM58.5384 46.2455C58.8047 46.294 59.0478 46.2721 59.269 46.1797C59.4901 46.0861 59.6765 45.9244 59.8305 45.6934C59.9845 45.4624 60.0945 45.1655 60.1617 44.804C60.2288 44.4425 60.2323 44.1214 60.1709 43.8499C60.1096 43.5785 59.9926 43.3602 59.8201 43.195C59.6476 43.0298 59.4276 42.9224 59.1613 42.8739C58.895 42.8254 58.6553 42.8473 58.4342 42.9409C58.213 43.0344 58.0255 43.1962 57.868 43.4283C57.7117 43.6593 57.5994 43.9585 57.5322 44.3223C57.4651 44.6862 57.4639 45.0015 57.5276 45.2718C57.5913 45.5421 57.7094 45.7604 57.8819 45.9267C58.0544 46.0919 58.2733 46.1993 58.5372 46.2478L58.5384 46.2455Z" fill="#1E3B7A"/>
<path d="M63.2727 48.1157C62.8559 48.0394 62.5051 47.9089 62.2191 47.7253C61.9331 47.5416 61.7282 47.3083 61.602 47.0241C61.4758 46.7411 61.4422 46.4119 61.5024 46.0389L62.5583 46.2329C62.541 46.4062 62.5653 46.5598 62.6313 46.6926C62.6973 46.8255 62.7992 46.934 62.937 47.0195C63.0747 47.105 63.2391 47.165 63.4313 47.1997C63.6235 47.2343 63.7833 47.2367 63.9304 47.2089C64.0774 47.1812 64.1978 47.1258 64.2916 47.0438C64.3842 46.9618 64.4433 46.8578 64.4664 46.7307C64.4873 46.6152 64.4711 46.5124 64.4178 46.4212C64.3646 46.3299 64.2766 46.2445 64.1561 46.1659C64.0357 46.0862 63.8852 46.0077 63.7057 45.9291L63.165 45.6866C62.7494 45.5029 62.4356 45.2742 62.2261 45.0005C62.0153 44.7267 61.9459 44.3987 62.0165 44.0186C62.0744 43.7068 62.2098 43.4492 62.4229 43.2459C62.6359 43.0426 62.9022 42.9029 63.2218 42.8266C63.5413 42.7504 63.8887 42.7469 64.2661 42.8162C64.6436 42.8855 64.9736 43.0137 65.2352 43.1986C65.4969 43.3822 65.6868 43.6063 65.8037 43.8685C65.9218 44.1318 65.9542 44.416 65.9033 44.7209L64.8508 44.528C64.8694 44.3236 64.8126 44.1503 64.6795 44.0094C64.5463 43.8685 64.3495 43.7726 64.0878 43.7253C63.9118 43.6929 63.7579 43.6906 63.6247 43.7172C63.4916 43.7437 63.385 43.7957 63.304 43.8708C63.2229 43.947 63.172 44.0406 63.1512 44.1538C63.1292 44.2739 63.1477 44.3813 63.2067 44.4772C63.2658 44.5731 63.3526 44.6586 63.4661 44.7325C63.5807 44.8076 63.7081 44.8757 63.8505 44.9369L64.2916 45.1356C64.507 45.228 64.7015 45.3331 64.8752 45.4521C65.0488 45.5711 65.1947 45.705 65.3128 45.8529C65.4297 46.0007 65.5119 46.1648 65.5583 46.3438C65.6046 46.5228 65.6069 46.7203 65.5675 46.9352C65.5096 47.2517 65.3788 47.5116 65.1773 47.7137C64.9759 47.9158 64.7142 48.0533 64.3923 48.1249C64.0705 48.1965 63.6976 48.1919 63.2739 48.1145L63.2727 48.1157Z" fill="#1E3B7A"/>
<path d="M65.7933 48.5037L66.7474 43.3429L70.2336 43.984L70.0669 44.8849L67.6713 44.4448L67.4479 45.6576L69.6628 46.0654L69.4995 46.949L67.2846 46.5413L67.0507 47.8061L69.4532 48.2473L69.2865 49.1483L65.7933 48.506V48.5037Z" fill="#1E3B7A"/>
<path d="M71.9576 44.3016L71.0035 49.4624L69.9128 49.2614L70.8669 44.1006L71.9576 44.3016ZM71.7468 49.5987L70.3991 49.3515L70.5716 48.4159L71.8707 48.655C72.1972 48.7151 72.4809 48.7081 72.724 48.6342C72.966 48.5603 73.1663 48.4124 73.3226 48.1895C73.4801 47.9666 73.5936 47.664 73.6642 47.2805C73.7348 46.897 73.736 46.577 73.6688 46.3148C73.6017 46.0526 73.4674 45.8424 73.2682 45.6876C73.0679 45.5329 72.8062 45.4254 72.482 45.3654L71.1598 45.1217L71.3323 44.1861L72.7171 44.4413C73.2381 44.5372 73.6665 44.7232 74.0034 44.9981C74.3403 45.2741 74.5742 45.6218 74.7039 46.0434C74.8347 46.465 74.8498 46.9432 74.7514 47.4791C74.653 48.0151 74.4654 48.461 74.1921 48.8086C73.9177 49.1575 73.5739 49.4 73.1582 49.5375C72.7426 49.6749 72.2725 49.6946 71.7468 49.5987Z" fill="#1E3B7A"/>
<path d="M39.3335 64.9093H0.897312C0.40174 64.9093 0 65.3101 0 65.8045V78.8648C0 79.3592 0.40174 79.76 0.897312 79.76H39.3335C39.8291 79.76 40.2308 79.3592 40.2308 78.8648V65.8045C40.2308 65.3101 39.8291 64.9093 39.3335 64.9093Z" fill="#1E3B7A"/>
<path d="M39.3335 62.9398H0.897312C0.40174 62.9398 0 63.3406 0 63.835V76.8953C0 77.3897 0.40174 77.7905 0.897312 77.7905H39.3335C39.8291 77.7905 40.2308 77.3897 40.2308 76.8953V63.835C40.2308 63.3406 39.8291 62.9398 39.3335 62.9398Z" fill="#536B73"/>
<path d="M20.277 71.2067C22.6826 71.2067 24.6327 69.2612 24.6327 66.8613C24.6327 64.4615 22.6826 62.516 20.277 62.516C17.8714 62.516 15.9213 64.4615 15.9213 66.8613C15.9213 69.2612 17.8714 71.2067 20.277 71.2067Z" fill="#1E3B7A"/>
<path d="M24.6327 58.3716H15.9213V66.8613H24.6327V58.3716Z" fill="#1E3B7A"/>
<path d="M20.277 66.4455C23.6398 66.4455 26.366 63.7258 26.366 60.371C26.366 57.0161 23.6398 54.2965 20.277 54.2965C16.9141 54.2965 14.188 57.0161 14.188 60.371C14.188 63.7258 16.9141 66.4455 20.277 66.4455Z" fill="#1E3B7A"/>
<path d="M20.277 65.7305C23.6398 65.7305 26.366 63.0109 26.366 59.656C26.366 56.3012 23.6398 53.5815 20.277 53.5815C16.9141 53.5815 14.188 56.3012 14.188 59.656C14.188 63.0109 16.9141 65.7305 20.277 65.7305Z" fill="#7F9297"/>
</svg>
