<svg width="126" height="125" viewBox="0 0 126 125" fill="none" xmlns="http://www.w3.org/2000/svg">
<path d="M112.808 35.0938L61.3301 19.542C60.815 19.3864 60.2709 19.6765 60.1148 20.19L39.44 88.1945C39.2839 88.708 39.5749 89.2504 40.09 89.406L91.5681 104.958C92.0832 105.113 92.6273 104.823 92.7834 104.31L113.458 36.3052C113.614 35.7918 113.323 35.2494 112.808 35.0938Z" fill="#8FC7D6"/>
<path d="M80.5779 7.62716L26.9449 11.7222C26.4082 11.7632 26.0065 12.2301 26.0476 12.765L31.4916 83.6164C31.5327 84.1514 32.0011 84.5518 32.5377 84.5109L86.1708 80.4158C86.7075 80.3749 87.1092 79.908 87.0681 79.373L81.6241 8.52161C81.583 7.98664 81.1146 7.58618 80.5779 7.62716Z" fill="#8FC7D6"/>
<path d="M102.834 13.0096L94.4043 80.9417L94.369 80.9698L76.4598 94.8909L76.3715 94.9589L28.6087 89.069C27.9802 88.9916 27.5341 88.4225 27.6118 87.796L37.887 5.00071C37.9647 4.37418 38.5356 3.93185 39.1641 4.00928L91.696 10.4882L86.5078 18.0582C85.5768 19.4157 85.9287 21.2742 87.2894 22.2011C87.7931 22.5437 88.3757 22.722 88.9725 22.722C89.1573 22.722 89.3444 22.7044 89.5304 22.6704C90.3154 22.5237 90.9969 22.0802 91.4453 21.4232L97.381 12.7632C97.541 12.5309 97.4822 12.2141 97.248 12.0533C97.0173 11.8973 96.6995 11.9583 96.5394 12.1883L90.605 20.8506C90.3072 21.2836 89.8587 21.5757 89.3409 21.6731C88.823 21.7693 88.298 21.6602 87.8637 21.3634C86.9657 20.7521 86.7362 19.5272 87.347 18.6331L92.8318 10.629L93.3062 10.6865L93.5557 10.7181L94.1936 10.7967L94.4432 10.8284H94.4443L96.4806 11.0795L96.7301 11.1088L97.368 11.1874L97.6175 11.2191L101.837 11.7401C102.466 11.8175 102.909 12.3854 102.832 13.0119L102.834 13.0096Z" fill="#AFEAEF"/>
<path d="M90.9903 55.8071L40.2596 49.553L39.9425 52.1089L90.6732 58.363L90.9903 55.8071Z" fill="#1E3B7A"/>
<path d="M90.1427 62.6386L39.412 56.3845L39.0949 58.9404L89.8256 65.1945L90.1427 62.6386Z" fill="#1E3B7A"/>
<path d="M89.2952 69.468L38.5645 63.2139L38.2474 65.7698L88.9782 72.0238L89.2952 69.468Z" fill="#1E3B7A"/>
<path d="M88.4477 76.2994L37.717 70.0453L37.3999 72.6012L88.1306 78.8553L88.4477 76.2994Z" fill="#1E3B7A"/>
<path d="M87.6002 83.1286L36.8695 76.8745L36.5524 79.4304L87.2831 85.6845L87.6002 83.1286Z" fill="#1E3B7A"/>
<path d="M94.4467 80.9792L94.1007 81.2478L76.4492 94.9694L77.8686 83.5275C77.9286 83.0395 78.064 82.5807 78.2629 82.1583C79.0774 80.416 80.95 79.3143 82.9674 79.563L94.4455 80.978L94.4467 80.9792Z" fill="#1E3B7A"/>
<path d="M95.4201 9.40639L94.4455 10.8261H94.4444L94.1948 10.7944L93.5569 10.7158L93.3074 10.6841L94.5774 8.83265C94.7339 8.60269 95.0517 8.54168 95.2847 8.69772H95.2859C95.5154 8.85729 95.5766 9.17408 95.4201 9.40522V9.40639Z" fill="#333333"/>
<path d="M97.7364 11.0455L97.6187 11.218L97.3692 11.1863L96.7313 11.1077L96.4817 11.0784L96.896 10.4718C97.4033 9.73143 97.2127 8.71537 96.4676 8.20851C95.7238 7.70282 94.7045 7.89524 94.1972 8.63558L92.8319 10.6278L87.347 18.632C86.735 19.526 86.9657 20.7509 87.8637 21.3622C88.298 21.6579 88.823 21.7682 89.3409 21.672C89.8588 21.5758 90.306 21.2824 90.605 20.8495L96.5394 12.1871C96.6995 11.9572 97.0173 11.8961 97.248 12.0522C97.4822 12.2129 97.5399 12.5297 97.381 12.762L91.4454 21.4221C90.9957 22.0791 90.3143 22.5226 89.5304 22.6693C89.3444 22.7033 89.1573 22.7209 88.9725 22.7209C88.3757 22.7209 87.7943 22.5425 87.2894 22.1999C85.9287 21.273 85.5768 19.4146 86.5078 18.0571L91.6961 10.487L93.358 8.06185C93.9312 7.22412 94.9528 6.78649 95.9592 6.94019C96.3534 7.00237 96.7183 7.14668 97.0455 7.36961C97.6293 7.76853 98.0236 8.36925 98.1554 9.06501C98.2849 9.75959 98.1378 10.4624 97.7376 11.0443L97.7364 11.0455Z" fill="#333333"/>
<path d="M55.5079 19.2009L55.2054 21.639L55.2007 21.6742C53.6035 21.8537 52.1464 22.587 51.0553 23.6958L51.1095 23.264L47.9551 22.8745L47.3925 27.4104L43.5566 26.9376L44.3805 20.3038L44.5865 18.6401L44.683 17.8657L46.5039 16.5892L50.6999 13.6525L55.5067 19.2009H55.5079Z" fill="#1E3B7A"/>
<path d="M58.9754 22.2128L58.8989 22.2774C58.2598 21.9793 57.5642 21.7752 56.8262 21.6837C56.2859 21.6168 55.7516 21.6144 55.2325 21.6708L55.2055 21.6391L50.4068 16.0214L44.3806 20.3039L42.0324 21.9723L40.5836 19.9449L44.1887 17.3824H44.1899L46.6204 15.6553L50.8235 12.6693L58.9754 22.2128Z" fill="#1E3B7A"/>
<path d="M46.8418 13.8804L44.6574 13.6111L44.0419 18.5727L46.2262 18.8419L46.8418 13.8804Z" fill="#1E3B7A"/>
<path d="M55.2325 21.6708L55.2007 21.6743" stroke="#7DC8D7" stroke-miterlimit="10"/>
<path d="M35.9393 39.3773L5.04997 48.1311C2.457 48.866 0.952566 51.5571 1.68973 54.1418L14.2711 98.2575C15.0083 100.842 17.7079 102.342 20.3009 101.607L51.1902 92.8533C53.7832 92.1184 55.2876 89.4274 54.5504 86.8426L41.969 42.7269C41.2319 40.1421 38.5323 38.6425 35.9393 39.3773Z" fill="#1E3B7A"/>
<path d="M36.1328 38.5273L5.24351 47.2812C2.65054 48.016 1.14611 50.7071 1.88327 53.2919L14.4647 97.4075C15.2019 99.9923 17.9015 101.492 20.4944 100.757L51.3837 92.0033C53.9767 91.2685 55.4811 88.5774 54.744 85.9926L42.1626 41.877C41.4254 39.2922 38.7258 37.7925 36.1328 38.5273Z" fill="#7F9297"/>
<path d="M35.8468 42.8047L7.74477 50.7686C6.21475 51.2022 5.32704 52.7901 5.76201 54.3153L8.25738 63.0651C8.69235 64.5903 10.2853 65.4752 11.8153 65.0416L39.9173 57.0777C41.4473 56.6441 42.335 55.0561 41.9001 53.531L39.4047 44.7812C38.9697 43.256 37.3768 42.3711 35.8468 42.8047Z" fill="#536B73"/>
<path d="M18.909 71.7578C18.3345 69.7433 16.2305 68.5745 14.2097 69.1472C12.1888 69.7199 11.0163 71.8173 11.5908 73.8317C12.1654 75.8462 14.2693 77.015 16.2902 76.4423C18.311 75.8696 19.4835 73.7723 18.909 71.7578Z" fill="#1E3B7A"/>
<path d="M27.5215 69.3175C26.947 67.303 24.843 66.1342 22.8222 66.7069C20.8013 67.2796 19.6288 69.3769 20.2033 71.3914C20.7778 73.4059 22.8818 74.5747 24.9027 74.002C26.9235 73.4293 28.096 71.332 27.5215 69.3175Z" fill="#1E3B7A"/>
<path d="M36.1348 66.8749C35.5603 64.8604 33.4563 63.6916 31.4354 64.2643C29.4146 64.837 28.2421 66.9343 28.8166 68.9488C29.3911 70.9633 31.4951 72.1321 33.5159 71.5594C35.5368 70.9867 36.7093 68.8893 36.1348 66.8749Z" fill="#1E3B7A"/>
<path d="M43.707 60.7872L36.3889 62.8611L38.4693 70.1561L45.7875 68.0822L43.707 60.7872Z" fill="#1E3B7A"/>
<path d="M27.6478 68.838C27.0733 66.8235 24.9694 65.6547 22.9485 66.2274C20.9277 66.8001 19.7552 68.8975 20.3297 70.9119C20.9042 72.9264 23.0081 74.0952 25.029 73.5225C27.0498 72.9498 28.2223 70.8525 27.6478 68.838Z" fill="#7DC8D7"/>
<path d="M19.0342 71.2794C18.4597 69.2649 16.3557 68.0962 14.3349 68.6689C12.314 69.2415 11.1415 71.3389 11.716 73.3533C12.2905 75.3678 14.3945 76.5366 16.4153 75.9639C18.4362 75.3912 19.6087 73.2939 19.0342 71.2794Z" fill="#7DC8D7"/>
<path d="M36.2603 66.3977C35.6857 64.3832 33.5818 63.2144 31.5609 63.7871C29.5401 64.3598 28.3676 66.4571 28.9421 68.4716C29.5166 70.4861 31.6206 71.6549 33.6414 71.0822C35.6623 70.5095 36.8348 68.4122 36.2603 66.3977Z" fill="#7DC8D7"/>
<path d="M43.8337 60.3088L36.5155 62.3827L38.596 69.6777L45.9141 67.6038L43.8337 60.3088Z" fill="#7DC8D7"/>
<path d="M21.5556 81.0391C20.9811 79.0246 18.8771 77.8558 16.8563 78.4285C14.8354 79.0012 13.6629 81.0985 14.2374 83.113C14.812 85.1274 16.9159 86.2962 18.9368 85.7235C20.9576 85.1508 22.1301 83.0535 21.5556 81.0391Z" fill="#1E3B7A"/>
<path d="M30.1693 78.5988C29.5947 76.5843 27.4908 75.4155 25.4699 75.9882C23.4491 76.5609 22.2766 78.6582 22.8511 80.6727C23.4256 82.6871 25.5296 83.8559 27.5504 83.2832C29.5713 82.7105 30.7438 80.6132 30.1693 78.5988Z" fill="#1E3B7A"/>
<path d="M38.7817 76.1573C38.2072 74.1429 36.1032 72.9741 34.0824 73.5468C32.0615 74.1195 30.889 76.2168 31.4635 78.2313C32.038 80.2457 34.142 81.4145 36.1628 80.8418C38.1837 80.2691 39.3562 78.1718 38.7817 76.1573Z" fill="#1E3B7A"/>
<path d="M30.2944 78.1204C29.7199 76.1059 27.616 74.9371 25.5951 75.5098C23.5743 76.0825 22.4018 78.1798 22.9763 80.1943C23.5508 82.2088 25.6547 83.3775 27.6756 82.8048C29.6965 82.2321 30.8689 80.1348 30.2944 78.1204Z" fill="#7DC8D7"/>
<path d="M21.6819 80.5607C21.1074 78.5462 19.0035 77.3774 16.9826 77.9501C14.9618 78.5228 13.7893 80.6201 14.3638 82.6346C14.9383 84.6491 17.0423 85.8178 19.0631 85.2452C21.084 84.6725 22.2565 82.5751 21.6819 80.5607Z" fill="#7DC8D7"/>
<path d="M38.908 75.679C38.3335 73.6645 36.2296 72.4957 34.2087 73.0684C32.1878 73.6411 31.0154 75.7384 31.5899 77.7529C32.1644 79.7673 34.2683 80.9361 36.2892 80.3634C38.31 79.7907 39.4825 77.6934 38.908 75.679Z" fill="#7DC8D7"/>
<path d="M44.7369 70.5252L40.6521 71.6828C39.7592 71.9359 39.2412 72.8625 39.495 73.7526L43.3036 87.1069C43.5574 87.997 44.487 88.5134 45.3799 88.2603L49.4646 87.1027C50.3575 86.8497 50.8755 85.923 50.6217 85.033L46.8132 71.6787C46.5593 70.7886 45.6297 70.2722 44.7369 70.5252Z" fill="#1E3B7A"/>
<path d="M24.2037 90.3226C23.6292 88.3082 21.5252 87.1394 19.5044 87.7121C17.4835 88.2848 16.311 90.3821 16.8855 92.3965C17.46 94.411 19.564 95.5798 21.5848 95.0071C23.6057 94.4344 24.7782 92.3371 24.2037 90.3226Z" fill="#1E3B7A"/>
<path d="M32.8162 87.8811C32.2417 85.8666 30.1377 84.6978 28.1168 85.2705C26.096 85.8432 24.9235 87.9405 25.498 89.955C26.0725 91.9695 28.1765 93.1383 30.1973 92.5656C32.2182 91.9929 33.3907 89.8956 32.8162 87.8811Z" fill="#1E3B7A"/>
<path d="M41.4287 85.4412C40.8541 83.4267 38.7502 82.2579 36.7293 82.8306C34.7085 83.4033 33.536 85.5006 34.1105 87.5151C34.685 89.5296 36.789 90.6983 38.8098 90.1256C40.8307 89.5529 42.0032 87.4556 41.4287 85.4412Z" fill="#1E3B7A"/>
<path d="M32.9425 87.4028C32.368 85.3884 30.264 84.2196 28.2432 84.7923C26.2223 85.365 25.0498 87.4623 25.6244 89.4767C26.1989 91.4912 28.3028 92.66 30.3237 92.0873C32.3445 91.5146 33.517 89.4173 32.9425 87.4028Z" fill="#7DC8D7"/>
<path d="M24.3289 89.843C23.7543 87.8285 21.6504 86.6598 19.6295 87.2324C17.6087 87.8051 16.4362 89.9025 17.0107 91.9169C17.5852 93.9314 19.6892 95.1002 21.71 94.5275C23.7309 93.9548 24.9034 91.8575 24.3289 89.843Z" fill="#7DC8D7"/>
<path d="M41.555 84.9617C40.9805 82.9472 38.8765 81.7784 36.8557 82.3511C34.8348 82.9238 33.6623 85.0211 34.2368 87.0356C34.8113 89.0501 36.9153 90.2188 38.9362 89.6461C40.957 89.0734 42.1295 86.9761 41.555 84.9617Z" fill="#7DC8D7"/>
<path d="M44.8642 70.05L40.7794 71.2076C39.8865 71.4606 39.3685 72.3873 39.6223 73.2774L43.4309 86.6317C43.6847 87.5217 44.6143 88.0382 45.5072 87.7851L49.592 86.6275C50.4848 86.3745 51.0029 85.4478 50.749 84.5578L46.9405 71.2034C46.6867 70.3134 45.7571 69.797 44.8642 70.05Z" fill="#AFEAEF"/>
<path d="M41.7358 66.6369C41.4498 66.7178 41.1744 66.726 40.9095 66.6603C40.6459 66.5946 40.4129 66.4574 40.2104 66.2485C40.008 66.0397 39.8573 65.7604 39.7584 65.4108C39.6596 65.0612 39.6384 64.7408 39.7008 64.4557C39.7631 64.1706 39.8891 63.9313 40.0798 63.7377C40.2704 63.5441 40.5082 63.4068 40.7918 63.327C40.9802 63.2742 41.1614 63.2508 41.3368 63.2578C41.5122 63.2649 41.6758 63.3012 41.8288 63.3658C41.9806 63.4315 42.1172 63.5253 42.236 63.6473C42.3549 63.7705 42.4526 63.9219 42.5267 64.1014L41.837 64.2973C41.7994 64.2129 41.7511 64.1413 41.6923 64.0815C41.6334 64.0216 41.5663 63.9759 41.491 63.9442C41.4157 63.9125 41.3344 63.8949 41.2485 63.8902C41.1626 63.8855 41.072 63.8973 40.9778 63.9242C40.813 63.9712 40.68 64.0533 40.5776 64.1718C40.4764 64.2903 40.4129 64.437 40.3893 64.613C40.3658 64.7889 40.3858 64.9896 40.4493 65.2149C40.5129 65.4401 40.6047 65.6267 40.7189 65.7639C40.833 65.9012 40.9637 65.9916 41.1108 66.035C41.2579 66.0796 41.4133 66.0784 41.5769 66.0315C41.6675 66.0057 41.7487 65.9693 41.8205 65.9223C41.8912 65.8754 41.9512 65.8203 41.9983 65.7569C42.0454 65.6936 42.0807 65.622 42.103 65.5434C42.1254 65.4648 42.1313 65.3803 42.1207 65.2888L42.8104 65.0928C42.8351 65.2465 42.8328 65.4014 42.801 65.5586C42.7704 65.7158 42.7092 65.8649 42.6197 66.0056C42.5303 66.1476 42.4126 66.272 42.2655 66.3823C42.1183 66.4914 41.9418 66.5759 41.7346 66.6345L41.7358 66.6369Z" fill="white"/>
<path d="M32.2538 51.2974L32.1656 50.99C32.0985 50.753 32.0867 50.5219 32.1314 50.2943C32.1762 50.0666 32.2786 49.8672 32.4386 49.6935C32.5987 49.5199 32.8164 49.3943 33.0907 49.3169C33.3649 49.2395 33.6274 49.2289 33.8557 49.2923C34.0829 49.3556 34.2747 49.4729 34.4289 49.6431C34.5831 49.8144 34.6926 50.0185 34.7573 50.2555L34.8456 50.5629C34.9162 50.7988 34.9292 51.0299 34.8844 51.2552C34.8409 51.4804 34.7385 51.6799 34.5796 51.8512C34.4207 52.0225 34.2018 52.1492 33.9228 52.2313C33.6427 52.3076 33.3885 52.3146 33.1613 52.2513C32.9341 52.1879 32.7423 52.0718 32.5869 51.9028C32.4316 51.7339 32.3209 51.5321 32.2538 51.2986V51.2974ZM33.9063 55.6538L36.2815 48.6305L37.0372 48.417L34.662 55.4403L33.9063 55.6538ZM33.0083 50.7507L33.0966 51.0581C33.1366 51.2 33.2072 51.3209 33.3073 51.4206C33.4073 51.5203 33.5415 51.545 33.7133 51.4933C33.8887 51.4464 33.9911 51.3549 34.0217 51.2188C34.0523 51.0827 34.0464 50.9431 34.0029 50.8023L33.9146 50.4949C33.8769 50.3517 33.8098 50.2297 33.7133 50.1276C33.6168 50.0256 33.4791 49.9998 33.3002 50.0502C33.1213 50.1007 33.0236 50.1945 32.9942 50.3353C32.9647 50.4761 32.9695 50.6146 33.0083 50.7507ZM36.238 53.7989L36.1497 53.4915C36.0826 53.2545 36.0709 53.0233 36.1144 52.798C36.158 52.5728 36.2592 52.3721 36.4181 52.1985C36.577 52.0248 36.7947 51.8981 37.0713 51.8195C37.3479 51.7409 37.6115 51.7304 37.8364 51.7949C38.0612 51.8594 38.2518 51.9767 38.4072 52.1469C38.5626 52.317 38.6744 52.5211 38.7415 52.757L38.8297 53.0644C38.8968 53.3014 38.9086 53.5325 38.8651 53.7601C38.8215 53.9866 38.7203 54.1872 38.5614 54.3597C38.4025 54.5322 38.1836 54.6589 37.9034 54.7375C37.6233 54.8161 37.3714 54.8243 37.1443 54.761C36.9183 54.6976 36.7276 54.5803 36.5711 54.4101C36.4157 54.24 36.3039 54.0359 36.2368 53.8L36.238 53.7989ZM36.9842 53.2556L37.0725 53.563C37.1113 53.7003 37.1808 53.8188 37.282 53.922C37.382 54.0241 37.5197 54.0511 37.6939 54.0018C37.8681 53.9526 37.9741 53.8587 38.0035 53.7226C38.0329 53.5865 38.027 53.4469 37.987 53.3049L37.8987 52.9975C37.8587 52.8555 37.7905 52.7335 37.6963 52.6314C37.601 52.5294 37.4632 52.5047 37.282 52.5587C37.1101 52.6044 37.0066 52.6971 36.9736 52.8356C36.9407 52.974 36.9442 53.1148 36.9842 53.2568V53.2556Z" fill="white"/>
<path d="M55.9801 34.4538C59.2791 34.4538 61.9534 31.7879 61.9534 28.4993C61.9534 25.2108 59.2791 22.5449 55.9801 22.5449C52.6812 22.5449 50.0068 25.2108 50.0068 28.4993C50.0068 31.7879 52.6812 34.4538 55.9801 34.4538Z" fill="#7DC8D7"/>
<path d="M55.6235 31.2977C55.2056 31.2461 54.8502 31.1382 54.5559 30.9727C54.2617 30.8073 54.0439 30.5879 53.9027 30.3145C53.7614 30.0411 53.7085 29.7173 53.7461 29.3442L54.8043 29.4744C54.7972 29.6469 54.8302 29.7971 54.9043 29.925C54.9785 30.0529 55.0856 30.155 55.2268 30.23C55.368 30.3063 55.5352 30.3556 55.727 30.3802C55.9189 30.4049 56.0778 30.3967 56.2225 30.3603C56.3673 30.3239 56.4827 30.2629 56.5709 30.1761C56.658 30.0893 56.7098 29.9825 56.7251 29.8558C56.7393 29.7396 56.7169 29.6387 56.6592 29.5519C56.6015 29.4651 56.5086 29.3853 56.385 29.3137C56.2602 29.2421 56.1072 29.1729 55.9248 29.106L55.3751 28.8972C54.9514 28.7388 54.6277 28.5311 54.4041 28.2718C54.1793 28.0125 54.091 27.6922 54.1381 27.3109C54.1769 26.9988 54.2958 26.736 54.4959 26.5225C54.696 26.3089 54.9514 26.1552 55.2633 26.0602C55.5752 25.9663 55.9201 25.9417 56.2979 25.9886C56.6757 26.0355 57.01 26.1435 57.2807 26.3101C57.5502 26.4767 57.7515 26.6879 57.8845 26.9413C58.0163 27.1948 58.0657 27.474 58.0328 27.7802L56.9782 27.65C56.9841 27.447 56.9182 27.2792 56.7781 27.1466C56.638 27.0141 56.4368 26.9319 56.1743 26.9003C55.9977 26.878 55.8447 26.885 55.7141 26.919C55.5834 26.9531 55.481 27.0105 55.4045 27.0903C55.3292 27.1701 55.2833 27.2663 55.2692 27.3801C55.2539 27.501 55.2786 27.6066 55.3433 27.6969C55.4069 27.7884 55.4987 27.867 55.6164 27.9351C55.7341 28.002 55.8647 28.063 56.0095 28.1158L56.4579 28.2871C56.6769 28.3657 56.8758 28.4584 57.0559 28.5663C57.2359 28.6743 57.3878 28.7975 57.5125 28.9383C57.6373 29.0779 57.7279 29.2351 57.7844 29.4099C57.8409 29.5847 57.855 29.7795 57.828 29.9942C57.7891 30.311 57.675 30.5762 57.4878 30.7885C57.3007 31.0009 57.0488 31.1522 56.7334 31.2414C56.4191 31.3306 56.0484 31.3494 55.6246 31.2966L55.6235 31.2977ZM55.3433 31.8445L56.1449 25.3867L56.5592 25.4383L55.7576 31.8961L55.3433 31.8445Z" fill="white"/>
</svg>
