<svg width="125" height="125" viewBox="0 0 125 125" fill="none" xmlns="http://www.w3.org/2000/svg">
<path d="M71.2472 14.2426L73.7635 40.0757C73.9234 41.7188 73.4499 42.519 71.8211 42.6803C70.6584 42.7616 70.2704 43.4993 70.465 44.5647L74.6039 87.0568L20.5731 92.9987L13.5894 16.9522L68.2003 11.5392C69.8303 11.3779 71.0873 12.5983 71.2484 14.2426H71.2472Z" fill="#1E3B7A"/>
<path d="M108.683 21.548L57.4079 5.87283C56.8949 5.716 56.353 6.00836 56.1975 6.52584L35.6042 75.0699C35.4487 75.5873 35.7385 76.134 36.2515 76.2908L87.5269 91.9659C88.0399 92.1227 88.5818 91.8304 88.7373 91.3129L109.331 22.7689C109.486 22.2514 109.196 21.7048 108.683 21.548Z" fill="#8FC7D6"/>
<path d="M94.8513 9.73494L87.7002 68.0534L87.6704 68.0771L72.4756 80.0284L72.4013 80.0872L31.8806 75.0306C31.3476 74.9643 30.9696 74.4754 31.0352 73.9377L39.752 2.85902C39.8177 2.32135 40.3023 1.94123 40.8354 2.0075L85.402 7.56926L81.0002 14.0688C80.2106 15.2342 80.5094 16.8297 81.6634 17.6249C82.0911 17.9188 82.5844 18.0713 83.0914 18.0713C83.2488 18.0713 83.4063 18.0563 83.5649 18.0263C84.2306 17.9 84.8095 17.5199 85.19 16.9547L90.2252 9.51987C90.3603 9.32106 90.3107 9.04848 90.1124 8.91093C89.9165 8.77714 89.6463 8.82966 89.5112 9.02722L84.4773 16.4633C84.2244 16.8347 83.8451 17.086 83.405 17.1698C82.9662 17.2523 82.52 17.1585 82.1518 16.9047C81.3895 16.3795 81.1949 15.328 81.7142 14.5615L86.3676 7.6893L86.7705 7.73931L86.9824 7.76557L87.5241 7.83309L87.7349 7.85935H87.7361L89.4641 8.07567L89.6748 8.10068L90.2165 8.1682L90.4272 8.19446L94.0071 8.64085C94.5402 8.70712 94.917 9.19477 94.8513 9.73244V9.73494Z" fill="#AFEAEF"/>
<path d="M84.8045 46.4764L41.7657 41.1073L41.4967 43.3013L84.5355 48.6704L84.8045 46.4764Z" fill="#1E3B7A"/>
<path d="M84.0842 52.3398L41.0454 46.9707L40.7764 49.1647L83.8152 54.5338L84.0842 52.3398Z" fill="#1E3B7A"/>
<path d="M83.3649 58.2045L40.3261 52.8354L40.0571 55.0294L83.0959 60.3985L83.3649 58.2045Z" fill="#1E3B7A"/>
<path d="M82.6471 64.0668L39.6082 58.6978L39.3392 60.8917L82.3781 66.2608L82.6471 64.0668Z" fill="#1E3B7A"/>
<path d="M81.9278 69.9317L38.889 64.5626L38.62 66.7566L81.6588 72.1257L81.9278 69.9317Z" fill="#1E3B7A"/>
<path d="M87.7361 68.0859L87.4423 68.3172L72.4669 80.0972L73.6718 70.2741C73.7226 69.8552 73.8379 69.4613 74.0065 69.0987C74.697 67.6032 76.2861 66.6579 77.998 66.8718L87.7361 68.0871V68.0859Z" fill="#1E3B7A"/>
<path d="M56.2534 7.0616L63.3004 32.027C63.7491 33.615 63.4243 34.4878 61.8501 34.9392C60.7208 35.228 60.4692 36.0245 60.8497 37.0373L72.441 78.1028L20.5758 92.9988L0 20.1082L52.7764 4.95094C54.3519 4.4983 55.8046 5.4736 56.2534 7.06286V7.0616Z" fill="#596B73"/>
<path d="M48.4415 62.1629L17.8433 70.9492L22.3494 86.9164L52.9475 78.13L48.4415 62.1629Z" fill="white"/>
<path d="M46.671 65.716L20.639 73.1912L21.0914 74.7943L47.1234 67.3191L46.671 65.716Z" fill="#3A2B2B"/>
<path d="M47.4929 68.6263L21.4609 76.1014L21.9133 77.7045L47.9453 70.2294L47.4929 68.6263Z" fill="#3A2B2B"/>
<path d="M48.3135 71.5379L22.2815 79.0131L22.7339 80.6162L48.7659 73.141L48.3135 71.5379Z" fill="#3A2B2B"/>
<path d="M41.6887 76.5875L23.1032 81.9243L23.5556 83.5274L42.1411 78.1905L41.6887 76.5875Z" fill="#3A2B2B"/>
<path d="M25.1263 26.6841L27.9339 36.6297L23.7789 37.8226L22.3744 32.8498L18.9581 33.8314L20.3613 38.8042L16.2063 39.9983L13.3986 30.0514L14.7163 27.9207L17.752 23.0179L25.1263 26.6841Z" fill="#AFEAEF"/>
<path d="M28.762 30.8141L18.4859 25.6137L12.4652 35.4943L10.0877 34.0201L17.4483 21.9401L30.0139 28.2971L28.762 30.8141Z" fill="#AFEAEF"/>
<path d="M13.8785 24.9511L11.512 25.6306L13.047 31.0701L15.4136 30.3905L13.8785 24.9511Z" fill="#AFEAEF"/>
<path d="M95.1499 77.2989C91.3469 77.2989 87.5439 75.8385 84.6482 72.9188C78.8581 67.0782 78.8581 57.5739 84.6482 51.7333C87.4534 48.9037 91.182 47.3457 95.1499 47.3457C99.1178 47.3457 102.846 48.9037 105.652 51.7333C111.442 57.5739 111.442 67.0782 105.652 72.9188C102.756 75.8397 98.953 77.2989 95.1499 77.2989ZM95.1499 50.8043C92.2233 50.8043 89.2979 51.9284 87.0691 54.1754C82.6141 58.6693 82.6141 65.9828 87.0691 70.4768C91.5242 74.9707 98.7745 74.9707 103.23 70.4768C107.685 65.9828 107.685 58.6693 103.23 54.1754C101.002 51.9284 98.0754 50.8043 95.1487 50.8043H95.1499Z" fill="#333333"/>
<path d="M118.288 87.3921C117.85 87.3921 117.412 87.2233 117.078 86.887L103.231 72.9188C102.563 72.2448 102.563 71.1507 103.231 70.4768C103.899 69.8028 104.984 69.8028 105.652 70.4768L119.499 84.4449C120.167 85.1189 120.167 86.213 119.499 86.887C119.164 87.2246 118.727 87.3921 118.289 87.3921H118.288Z" fill="#333333"/>
<path d="M88.5617 6.64123L87.7349 7.86036H87.7337L87.523 7.83411L86.9813 7.76658L86.7693 7.74033L87.8465 6.15107C87.9791 5.95351 88.2494 5.90099 88.4465 6.03479H88.4477C88.6423 6.17108 88.6944 6.44367 88.5617 6.64248V6.64123Z" fill="#333333"/>
<path d="M90.5277 8.04793L90.4273 8.19548L90.2166 8.16922L89.6749 8.1017L89.4641 8.07669L89.8162 7.55527C90.2463 6.92007 90.0839 6.0473 89.453 5.61216C88.8221 5.17827 87.9568 5.34332 87.5267 5.97853L86.3689 7.68907L81.7155 14.5612C81.1962 15.329 81.392 16.3806 82.1531 16.9045C82.5213 17.1583 82.9663 17.2533 83.4063 17.1696C83.8451 17.087 84.2257 16.8345 84.4786 16.4631L89.5125 9.02699C89.6476 8.82943 89.9178 8.77691 90.1137 8.9107C90.312 9.04824 90.3616 9.32083 90.2265 9.51964L85.1913 16.9545C84.8108 17.5184 84.2319 17.8985 83.5662 18.0261C83.4076 18.0548 83.2501 18.0711 83.0927 18.0711C82.587 18.0711 82.0924 17.9173 81.6647 17.6247C80.5107 16.8295 80.2119 15.2339 81.0015 14.0686L85.4033 7.56903L86.8127 5.48712C87.2986 4.76814 88.1651 4.39177 89.0204 4.52432C89.3551 4.57808 89.665 4.70187 89.9414 4.89318C90.436 5.23579 90.7719 5.75095 90.8835 6.34864C90.9938 6.94508 90.8686 7.54902 90.529 8.04793H90.5277Z" fill="#333333"/>
</svg>
